<svg xmlns="http://www.w3.org/2000/svg" xmlns:xlink="http://www.w3.org/1999/xlink" width="400" zoomAndPan="magnify" viewBox="0 0 300 149.999998" height="200" preserveAspectRatio="xMidYMid meet" version="1.0"><defs><g/></defs><g fill="#000000" fill-opacity="1"><g transform="translate(126.751958, 100.306147)"><g><path d="M 26.375 -36.890625 C 25.84375 -36.179688 25.398438 -35.414062 25.046875 -34.59375 C 24.703125 -33.78125 24.382812 -32.96875 24.09375 -32.15625 C 23.5625 -30.226562 23.035156 -28.285156 22.515625 -26.328125 C 21.992188 -24.367188 21.46875 -22.394531 20.9375 -20.40625 C 20.707031 -19.59375 20.210938 -18.90625 19.453125 -18.34375 C 18.691406 -17.789062 17.898438 -17.515625 17.078125 -17.515625 C 16.265625 -17.515625 15.503906 -17.835938 14.796875 -18.484375 C 14.097656 -19.128906 13.660156 -19.890625 13.484375 -20.765625 C 13.253906 -22.109375 13.050781 -23.460938 12.875 -24.828125 C 12.695312 -26.203125 12.460938 -27.535156 12.171875 -28.828125 C 12.003906 -29.640625 11.785156 -30.425781 11.515625 -31.1875 C 11.253906 -31.945312 10.976562 -32.765625 10.6875 -33.640625 C 10.570312 -33.460938 10.46875 -33.328125 10.375 -33.234375 C 10.289062 -33.148438 10.21875 -33.050781 10.15625 -32.9375 C 9.75 -32.007812 9.472656 -31.03125 9.328125 -30 C 9.179688 -28.976562 9.082031 -27.972656 9.03125 -26.984375 C 9.03125 -25.816406 9.054688 -24.617188 9.109375 -23.390625 C 9.171875 -22.160156 9.203125 -20.960938 9.203125 -19.796875 C 9.203125 -17.398438 8.238281 -15.882812 6.3125 -15.25 C 4.789062 -14.664062 3.414062 -14.78125 2.1875 -15.59375 C 0.957031 -16.414062 0.285156 -17.644531 0.171875 -19.28125 C -0.00390625 -21.5 -0.00390625 -23.6875 0.171875 -25.84375 C 0.285156 -27.539062 0.472656 -29.25 0.734375 -30.96875 C 1.003906 -32.6875 1.546875 -34.363281 2.359375 -36 C 3.003906 -37.289062 3.734375 -38.535156 4.546875 -39.734375 C 5.367188 -40.929688 6.453125 -41.847656 7.796875 -42.484375 C 9.316406 -43.242188 10.757812 -43.429688 12.125 -43.046875 C 13.5 -42.671875 14.65625 -41.8125 15.59375 -40.46875 C 15.945312 -40.007812 16.269531 -39.53125 16.5625 -39.03125 C 16.851562 -38.53125 17.144531 -37.988281 17.4375 -37.40625 C 17.613281 -37.757812 17.785156 -38.109375 17.953125 -38.453125 C 18.128906 -38.804688 18.304688 -39.160156 18.484375 -39.515625 C 19.128906 -40.859375 19.875 -42.097656 20.71875 -43.234375 C 21.5625 -44.367188 22.597656 -45.347656 23.828125 -46.171875 C 26.691406 -48.210938 29.4375 -48.066406 32.0625 -45.734375 C 32.707031 -45.148438 33.203125 -44.476562 33.546875 -43.71875 C 33.898438 -42.957031 34.195312 -42.171875 34.4375 -41.359375 C 35.070312 -38.960938 35.445312 -36.535156 35.5625 -34.078125 C 35.6875 -31.628906 35.6875 -29.148438 35.5625 -26.640625 C 35.5625 -24.179688 35.390625 -21.664062 35.046875 -19.09375 C 34.984375 -18.332031 34.820312 -17.585938 34.5625 -16.859375 C 34.300781 -16.128906 33.816406 -15.503906 33.109375 -14.984375 C 32.296875 -14.453125 31.40625 -14.226562 30.4375 -14.3125 C 29.476562 -14.40625 28.644531 -14.785156 27.9375 -15.453125 C 27.238281 -16.128906 26.863281 -17.023438 26.8125 -18.140625 C 26.695312 -19.890625 26.609375 -21.65625 26.546875 -23.4375 C 26.484375 -25.21875 26.453125 -26.984375 26.453125 -28.734375 C 26.398438 -29.898438 26.398438 -31.082031 26.453125 -32.28125 C 26.515625 -33.476562 26.546875 -34.660156 26.546875 -35.828125 C 26.546875 -36.003906 26.546875 -36.179688 26.546875 -36.359375 C 26.546875 -36.535156 26.546875 -36.710938 26.546875 -36.890625 C 26.484375 -36.890625 26.453125 -36.890625 26.453125 -36.890625 C 26.453125 -36.890625 26.425781 -36.890625 26.375 -36.890625 Z M 15.15625 -27.59375 C 15.039062 -27.539062 14.863281 -27.515625 14.625 -27.515625 C 14.75 -26.628906 14.820312 -25.765625 14.84375 -24.921875 C 14.875 -24.078125 14.976562 -23.242188 15.15625 -22.421875 C 15.21875 -22.015625 15.347656 -21.617188 15.546875 -21.234375 C 15.753906 -20.859375 15.972656 -20.5 16.203125 -20.15625 C 16.328125 -19.976562 16.503906 -19.84375 16.734375 -19.75 C 16.960938 -19.664062 17.195312 -19.566406 17.4375 -19.453125 C 17.550781 -19.390625 17.664062 -19.398438 17.78125 -19.484375 C 17.894531 -19.578125 18.015625 -19.65625 18.140625 -19.71875 C 18.078125 -19.832031 18.015625 -19.929688 17.953125 -20.015625 C 17.898438 -20.109375 17.84375 -20.179688 17.78125 -20.234375 C 17.550781 -20.640625 17.300781 -21.03125 17.03125 -21.40625 C 16.769531 -21.789062 16.582031 -22.191406 16.46875 -22.609375 C 16.238281 -23.191406 16.0625 -23.785156 15.9375 -24.390625 C 15.820312 -25.003906 15.675781 -25.601562 15.5 -26.1875 C 15.445312 -26.425781 15.390625 -26.660156 15.328125 -26.890625 C 15.273438 -27.128906 15.21875 -27.363281 15.15625 -27.59375 Z M 11.390625 -41.265625 C 10.859375 -41.960938 9.863281 -41.960938 8.40625 -41.265625 C 7.300781 -40.679688 6.335938 -39.804688 5.515625 -38.640625 C 4.703125 -37.472656 4.410156 -36.476562 4.640625 -35.65625 C 5.109375 -36.300781 5.5625 -36.925781 6 -37.53125 C 6.4375 -38.144531 6.945312 -38.6875 7.53125 -39.15625 C 8.0625 -39.625 8.675781 -40.003906 9.375 -40.296875 C 10.070312 -40.585938 10.742188 -40.910156 11.390625 -41.265625 Z M 28.734375 -22.78125 C 28.671875 -22.71875 28.582031 -22.6875 28.46875 -22.6875 C 28.0625 -21.8125 27.972656 -20.757812 28.203125 -19.53125 C 28.441406 -18.3125 28.910156 -17.378906 29.609375 -16.734375 C 30.253906 -16.203125 31.015625 -15.96875 31.890625 -16.03125 C 32.066406 -16.09375 32.269531 -16.238281 32.5 -16.46875 C 32.445312 -16.582031 32.375 -16.671875 32.28125 -16.734375 C 32.195312 -16.796875 32.097656 -16.851562 31.984375 -16.90625 C 30.753906 -17.257812 29.960938 -18.050781 29.609375 -19.28125 C 29.492188 -19.625 29.40625 -19.984375 29.34375 -20.359375 C 29.289062 -20.742188 29.207031 -21.140625 29.09375 -21.546875 C 28.96875 -22.015625 28.847656 -22.425781 28.734375 -22.78125 Z M 20.5 -39.59375 C 20.613281 -39.539062 20.726562 -39.457031 20.84375 -39.34375 C 21.3125 -39.976562 21.75 -40.601562 22.15625 -41.21875 C 22.570312 -41.832031 23.039062 -42.375 23.5625 -42.84375 C 24.144531 -43.363281 24.785156 -43.800781 25.484375 -44.15625 C 26.191406 -44.507812 26.894531 -44.890625 27.59375 -45.296875 C 26.894531 -45.703125 26.109375 -45.757812 25.234375 -45.46875 C 23.941406 -44.882812 22.972656 -44.050781 22.328125 -42.96875 C 21.691406 -41.894531 21.082031 -40.769531 20.5 -39.59375 Z M 5.609375 -16.5625 C 5.203125 -16.96875 4.789062 -17.359375 4.375 -17.734375 C 3.96875 -18.117188 3.617188 -18.546875 3.328125 -19.015625 C 3.097656 -19.484375 2.910156 -19.976562 2.765625 -20.5 C 2.617188 -21.019531 2.457031 -21.546875 2.28125 -22.078125 C 2.101562 -22.015625 2.015625 -21.957031 2.015625 -21.90625 C 1.609375 -21.03125 1.609375 -20.019531 2.015625 -18.875 C 2.421875 -17.738281 3.035156 -16.9375 3.859375 -16.46875 C 4.492188 -16.175781 5.078125 -16.207031 5.609375 -16.5625 Z M 5.609375 -16.5625 "/></g></g></g><g fill="#000000" fill-opacity="1"><g transform="translate(163.986676, 100.306147)"><g><path d="M 28.90625 -19.359375 C 28.789062 -18.421875 28.675781 -17.46875 28.5625 -16.5 C 28.445312 -15.539062 28.300781 -14.566406 28.125 -13.578125 C 27.882812 -12.585938 27.351562 -11.800781 26.53125 -11.21875 C 25.71875 -10.632812 24.785156 -10.398438 23.734375 -10.515625 C 22.921875 -10.566406 22.160156 -10.972656 21.453125 -11.734375 C 20.753906 -12.492188 20.347656 -13.3125 20.234375 -14.1875 C 20.054688 -15.53125 19.796875 -16.816406 19.453125 -18.046875 C 19.453125 -18.160156 19.363281 -18.273438 19.1875 -18.390625 C 19.007812 -18.515625 18.863281 -18.578125 18.75 -18.578125 C 17.40625 -18.515625 16.0625 -18.410156 14.71875 -18.265625 C 13.375 -18.117188 12.0625 -17.84375 10.78125 -17.4375 C 9.4375 -17.03125 8.585938 -16.066406 8.234375 -14.546875 C 7.941406 -13.203125 7.503906 -11.914062 6.921875 -10.6875 C 6.628906 -10.101562 6.175781 -9.679688 5.5625 -9.421875 C 4.945312 -9.160156 4.289062 -9.054688 3.59375 -9.109375 C 2.070312 -9.285156 1.019531 -10.101562 0.4375 -11.5625 C 0.144531 -12.320312 0.0234375 -13.066406 0.078125 -13.796875 C 0.140625 -14.523438 0.257812 -15.269531 0.4375 -16.03125 C 1.082031 -18.3125 1.707031 -20.617188 2.3125 -22.953125 C 2.925781 -25.285156 3.613281 -27.59375 4.375 -29.875 C 5.082031 -32.09375 5.914062 -34.265625 6.875 -36.390625 C 7.84375 -38.523438 8.96875 -40.554688 10.25 -42.484375 C 11.882812 -45.054688 14.101562 -46.429688 16.90625 -46.609375 C 18.601562 -46.671875 20.210938 -46.054688 21.734375 -44.765625 C 23.421875 -43.304688 24.675781 -41.410156 25.5 -39.078125 C 26.019531 -37.492188 26.46875 -35.898438 26.84375 -34.296875 C 27.226562 -32.691406 27.476562 -31.070312 27.59375 -29.4375 C 27.707031 -28.269531 27.867188 -27.113281 28.078125 -25.96875 C 28.285156 -24.832031 28.472656 -23.679688 28.640625 -22.515625 C 28.703125 -21.992188 28.734375 -21.46875 28.734375 -20.9375 C 28.734375 -20.414062 28.765625 -19.890625 28.828125 -19.359375 C 28.828125 -19.359375 28.851562 -19.359375 28.90625 -19.359375 Z M 12.171875 -26.28125 C 12.296875 -26.164062 12.359375 -26.132812 12.359375 -26.1875 C 14.160156 -26.3125 15.878906 -26.488281 17.515625 -26.71875 C 17.753906 -26.71875 17.875 -26.894531 17.875 -27.25 C 17.757812 -28.175781 17.628906 -29.09375 17.484375 -30 C 17.335938 -30.90625 17.203125 -31.828125 17.078125 -32.765625 C 17.023438 -33.171875 16.9375 -33.550781 16.8125 -33.90625 C 16.695312 -34.257812 16.582031 -34.640625 16.46875 -35.046875 C 15.53125 -33.585938 14.695312 -32.140625 13.96875 -30.703125 C 13.238281 -29.273438 12.640625 -27.800781 12.171875 -26.28125 Z M 10.34375 -39.15625 C 10.394531 -39.101562 10.4375 -39.078125 10.46875 -39.078125 C 10.5 -39.078125 10.539062 -39.046875 10.59375 -38.984375 C 11.0625 -39.453125 11.484375 -39.945312 11.859375 -40.46875 C 12.242188 -41 12.671875 -41.46875 13.140625 -41.875 C 13.609375 -42.34375 14.132812 -42.78125 14.71875 -43.1875 C 15.300781 -43.59375 15.882812 -44.003906 16.46875 -44.421875 C 15.769531 -44.597656 15.171875 -44.550781 14.671875 -44.28125 C 14.179688 -44.019531 13.703125 -43.710938 13.234375 -43.359375 C 12.523438 -42.835938 11.894531 -42.238281 11.34375 -41.5625 C 10.789062 -40.894531 10.457031 -40.09375 10.34375 -39.15625 Z M 4.125 -10.515625 C 2.601562 -12.203125 2.191406 -14.242188 2.890625 -16.640625 C 2.304688 -16.234375 1.910156 -15.601562 1.703125 -14.75 C 1.503906 -13.90625 1.550781 -13.078125 1.84375 -12.265625 C 2.25 -10.984375 3.007812 -10.398438 4.125 -10.515625 Z M 21.8125 -17.609375 C 21.34375 -16.492188 21.34375 -15.351562 21.8125 -14.1875 C 22.050781 -13.601562 22.328125 -13.109375 22.640625 -12.703125 C 22.960938 -12.296875 23.414062 -12.003906 24 -11.828125 C 24.125 -11.765625 24.257812 -11.765625 24.40625 -11.828125 C 24.550781 -11.890625 24.679688 -11.921875 24.796875 -11.921875 C 24.796875 -11.972656 24.804688 -12.015625 24.828125 -12.046875 C 24.859375 -12.078125 24.875 -12.117188 24.875 -12.171875 C 23.769531 -12.816406 23.054688 -13.617188 22.734375 -14.578125 C 22.410156 -15.546875 22.101562 -16.554688 21.8125 -17.609375 Z M 21.8125 -17.609375 "/></g></g></g><g fill="#000000" fill-opacity="1"><g transform="translate(195.526701, 100.306147)"><g><path d="M 17.609375 -22.078125 C 18.429688 -20.265625 19.289062 -18.46875 20.1875 -16.6875 C 21.09375 -14.90625 22.191406 -13.195312 23.484375 -11.5625 C 23.773438 -11.269531 24.078125 -10.976562 24.390625 -10.6875 C 24.710938 -10.394531 24.992188 -10.070312 25.234375 -9.71875 C 26.109375 -8.613281 26.164062 -7.414062 25.40625 -6.125 C 24.757812 -4.789062 23.707031 -4.125 22.25 -4.125 C 21.3125 -4.125 20.492188 -4.351562 19.796875 -4.8125 C 19.210938 -5.28125 18.597656 -5.703125 17.953125 -6.078125 C 17.316406 -6.460938 16.765625 -6.921875 16.296875 -7.453125 C 14.953125 -8.910156 13.753906 -10.457031 12.703125 -12.09375 C 12.234375 -12.90625 11.804688 -13.765625 11.421875 -14.671875 C 11.046875 -15.578125 10.625 -16.46875 10.15625 -17.34375 C 10.039062 -17.519531 9.835938 -17.695312 9.546875 -17.875 C 9.492188 -17.34375 9.4375 -16.8125 9.375 -16.28125 C 9.3125 -15.757812 9.253906 -15.238281 9.203125 -14.71875 C 9.203125 -14.132812 9.1875 -13.550781 9.15625 -12.96875 C 9.125 -12.382812 8.960938 -11.828125 8.671875 -11.296875 C 8.265625 -10.367188 7.625 -9.671875 6.75 -9.203125 C 5.875 -8.734375 4.9375 -8.554688 3.9375 -8.671875 C 3.007812 -8.847656 2.148438 -9.316406 1.359375 -10.078125 C 0.566406 -10.835938 0.144531 -11.679688 0.09375 -12.609375 C 0.03125 -13.492188 0.015625 -14.375 0.046875 -15.25 C 0.078125 -16.125 0.117188 -17.023438 0.171875 -17.953125 C 0.234375 -18.953125 0.289062 -19.976562 0.34375 -21.03125 C 0.40625 -22.082031 0.46875 -23.132812 0.53125 -24.1875 C 0.53125 -24.820312 0.53125 -25.472656 0.53125 -26.140625 C 0.53125 -26.816406 0.53125 -27.476562 0.53125 -28.125 C 0.46875 -29.695312 0.4375 -31.285156 0.4375 -32.890625 C 0.4375 -34.503906 0.40625 -36.097656 0.34375 -37.671875 C 0.289062 -38.316406 0.234375 -38.972656 0.171875 -39.640625 C 0.117188 -40.316406 0.0625 -40.972656 0 -41.609375 C 0 -42.773438 0.316406 -43.796875 0.953125 -44.671875 C 1.597656 -45.554688 2.476562 -46.113281 3.59375 -46.34375 C 4.9375 -46.632812 6.289062 -46.941406 7.65625 -47.265625 C 9.03125 -47.585938 10.421875 -47.691406 11.828125 -47.578125 C 15.160156 -47.398438 18.109375 -46.203125 20.671875 -43.984375 C 22.890625 -42.109375 24.351562 -39.828125 25.0625 -37.140625 C 25.582031 -34.984375 25.609375 -32.941406 25.140625 -31.015625 C 24.671875 -29.085938 23.617188 -27.304688 21.984375 -25.671875 C 21.398438 -25.023438 20.726562 -24.425781 19.96875 -23.875 C 19.21875 -23.320312 18.429688 -22.722656 17.609375 -22.078125 Z M 9.546875 -30.046875 C 11.828125 -30.222656 13.785156 -31.039062 15.421875 -32.5 C 16.117188 -33.082031 16.410156 -33.695312 16.296875 -34.34375 C 16.296875 -34.8125 16.207031 -35.25 16.03125 -35.65625 C 15.851562 -36.0625 15.617188 -36.441406 15.328125 -36.796875 C 14.742188 -37.785156 13.765625 -38.539062 12.390625 -39.0625 C 11.023438 -39.59375 9.816406 -39.710938 8.765625 -39.421875 C 8.878906 -37.847656 9.007812 -36.285156 9.15625 -34.734375 C 9.300781 -33.191406 9.429688 -31.628906 9.546875 -30.046875 Z M 17.4375 -38.90625 C 17.375 -38.84375 17.328125 -38.8125 17.296875 -38.8125 C 17.273438 -38.8125 17.234375 -38.78125 17.171875 -38.71875 C 17.234375 -38.664062 17.265625 -38.578125 17.265625 -38.453125 C 17.265625 -38.335938 17.289062 -38.222656 17.34375 -38.109375 C 18.164062 -36.242188 18.019531 -34.492188 16.90625 -32.859375 C 16.675781 -32.503906 16.441406 -32.164062 16.203125 -31.84375 C 15.972656 -31.519531 15.738281 -31.210938 15.5 -30.921875 C 15.445312 -30.867188 15.40625 -30.769531 15.375 -30.625 C 15.34375 -30.476562 15.300781 -30.34375 15.25 -30.21875 C 15.363281 -30.28125 15.492188 -30.296875 15.640625 -30.265625 C 15.785156 -30.234375 15.882812 -30.25 15.9375 -30.3125 C 17.226562 -31.007812 18.109375 -32.144531 18.578125 -33.71875 C 19.046875 -35.300781 18.925781 -36.734375 18.21875 -38.015625 C 18.101562 -38.140625 17.972656 -38.285156 17.828125 -38.453125 C 17.679688 -38.628906 17.550781 -38.78125 17.4375 -38.90625 Z M 17.4375 -10.59375 C 17.375 -10.59375 17.328125 -10.578125 17.296875 -10.546875 C 17.273438 -10.523438 17.265625 -10.515625 17.265625 -10.515625 C 17.265625 -10.222656 17.289062 -10.046875 17.34375 -9.984375 C 17.8125 -9.398438 18.289062 -8.832031 18.78125 -8.28125 C 19.28125 -7.726562 19.820312 -7.21875 20.40625 -6.75 C 20.695312 -6.507812 21.03125 -6.359375 21.40625 -6.296875 C 21.789062 -6.242188 22.191406 -6.160156 22.609375 -6.046875 C 22.722656 -5.984375 22.863281 -6.023438 23.03125 -6.171875 C 23.207031 -6.316406 23.359375 -6.421875 23.484375 -6.484375 C 23.421875 -6.597656 23.316406 -6.710938 23.171875 -6.828125 C 23.023438 -6.953125 22.894531 -7.039062 22.78125 -7.09375 C 22.019531 -7.332031 21.300781 -7.671875 20.625 -8.109375 C 19.957031 -8.546875 19.300781 -9.023438 18.65625 -9.546875 C 18.425781 -9.722656 18.207031 -9.898438 18 -10.078125 C 17.800781 -10.253906 17.613281 -10.425781 17.4375 -10.59375 Z M 2.109375 -16.828125 C 1.867188 -16.585938 1.75 -16.441406 1.75 -16.390625 C 1.695312 -16.328125 1.671875 -16.265625 1.671875 -16.203125 C 1.671875 -16.148438 1.640625 -16.09375 1.578125 -16.03125 C 1.460938 -14.101562 2.078125 -12.554688 3.421875 -11.390625 C 3.765625 -11.148438 4.226562 -10.972656 4.8125 -10.859375 C 4.9375 -10.804688 5.054688 -10.804688 5.171875 -10.859375 C 5.285156 -10.921875 5.398438 -10.976562 5.515625 -11.03125 C 5.398438 -11.382812 5.253906 -11.617188 5.078125 -11.734375 C 3.441406 -12.671875 2.535156 -14.101562 2.359375 -16.03125 C 2.359375 -16.144531 2.328125 -16.257812 2.265625 -16.375 C 2.210938 -16.5 2.160156 -16.648438 2.109375 -16.828125 Z M 2.453125 -40.46875 C 2.515625 -40.46875 2.554688 -40.484375 2.578125 -40.515625 C 2.609375 -40.546875 2.65625 -40.5625 2.71875 -40.5625 C 2.769531 -40.675781 2.796875 -40.789062 2.796875 -40.90625 C 2.796875 -41.03125 2.828125 -41.117188 2.890625 -41.171875 C 3.003906 -41.816406 3.175781 -42.414062 3.40625 -42.96875 C 3.644531 -43.519531 4.03125 -44.003906 4.5625 -44.421875 C 4.675781 -44.535156 4.734375 -44.648438 4.734375 -44.765625 C 4.734375 -44.878906 4.757812 -45 4.8125 -45.125 C 4.695312 -45.125 4.566406 -45.132812 4.421875 -45.15625 C 4.273438 -45.1875 4.144531 -45.175781 4.03125 -45.125 C 3.445312 -44.832031 2.945312 -44.257812 2.53125 -43.40625 C 2.125 -42.5625 1.984375 -41.816406 2.109375 -41.171875 C 2.160156 -41.054688 2.210938 -40.941406 2.265625 -40.828125 C 2.328125 -40.710938 2.390625 -40.59375 2.453125 -40.46875 Z M 2.453125 -40.46875 "/></g></g></g><g fill="#000000" fill-opacity="1"><g transform="translate(224.087948, 100.306147)"><g><path d="M 10.515625 -37.9375 C 10.921875 -38.582031 11.328125 -39.253906 11.734375 -39.953125 C 12.148438 -40.648438 12.5625 -41.320312 12.96875 -41.96875 C 13.664062 -42.957031 14.394531 -43.945312 15.15625 -44.9375 C 15.914062 -45.9375 16.675781 -46.898438 17.4375 -47.828125 C 18.070312 -48.585938 18.945312 -49.054688 20.0625 -49.234375 C 21.175781 -49.410156 22.195312 -49.085938 23.125 -48.265625 C 23.769531 -47.742188 24.207031 -47.03125 24.4375 -46.125 C 24.675781 -45.21875 24.5625 -44.359375 24.09375 -43.546875 C 23.800781 -42.898438 23.4375 -42.296875 23 -41.734375 C 22.5625 -41.179688 22.140625 -40.613281 21.734375 -40.03125 C 20.972656 -38.925781 20.253906 -37.847656 19.578125 -36.796875 C 18.910156 -35.742188 18.222656 -34.660156 17.515625 -33.546875 C 17.285156 -33.203125 17.050781 -32.835938 16.8125 -32.453125 C 16.582031 -32.078125 16.351562 -31.6875 16.125 -31.28125 C 16 -31.039062 16 -30.773438 16.125 -30.484375 C 17.632812 -28.671875 18.859375 -26.726562 19.796875 -24.65625 C 20.734375 -22.582031 21.523438 -20.4375 22.171875 -18.21875 C 22.515625 -16.9375 22.875 -15.648438 23.25 -14.359375 C 23.632812 -13.078125 23.972656 -11.765625 24.265625 -10.421875 C 24.441406 -9.660156 24.472656 -8.898438 24.359375 -8.140625 C 24.242188 -7.390625 23.863281 -6.71875 23.21875 -6.125 C 22.101562 -5.195312 20.945312 -4.9375 19.75 -5.34375 C 18.550781 -5.75 17.722656 -6.566406 17.265625 -7.796875 C 17.023438 -8.441406 16.785156 -9.082031 16.546875 -9.71875 C 16.316406 -10.363281 16.054688 -10.976562 15.765625 -11.5625 C 15.066406 -13.144531 14.351562 -14.738281 13.625 -16.34375 C 12.894531 -17.945312 12.179688 -19.566406 11.484375 -21.203125 C 11.421875 -21.203125 11.359375 -21.203125 11.296875 -21.203125 C 11.242188 -21.203125 11.1875 -21.203125 11.125 -21.203125 C 11.0625 -20.910156 10.972656 -20.585938 10.859375 -20.234375 C 10.742188 -19.890625 10.628906 -19.570312 10.515625 -19.28125 C 10.335938 -18.519531 10.175781 -17.769531 10.03125 -17.03125 C 9.882812 -16.300781 9.664062 -15.617188 9.375 -14.984375 C 8.96875 -13.984375 8.320312 -13.28125 7.4375 -12.875 C 6.5625 -12.46875 5.570312 -12.320312 4.46875 -12.4375 C 2.65625 -12.675781 1.367188 -13.726562 0.609375 -15.59375 C 0.378906 -16.351562 0.207031 -17.203125 0.09375 -18.140625 C 0.03125 -19.941406 0.0703125 -21.71875 0.21875 -23.46875 C 0.363281 -25.226562 0.492188 -26.984375 0.609375 -28.734375 C 0.722656 -29.847656 0.820312 -30.941406 0.90625 -32.015625 C 1 -33.097656 1.078125 -34.195312 1.140625 -35.3125 C 1.253906 -36.476562 1.335938 -37.671875 1.390625 -38.890625 C 1.453125 -40.117188 1.546875 -41.316406 1.671875 -42.484375 C 1.785156 -43.773438 2.394531 -44.769531 3.5 -45.46875 C 4.5 -46.113281 5.566406 -46.257812 6.703125 -45.90625 C 7.835938 -45.550781 8.640625 -44.789062 9.109375 -43.625 C 9.398438 -42.925781 9.601562 -42.195312 9.71875 -41.4375 C 9.84375 -40.675781 9.988281 -39.890625 10.15625 -39.078125 C 10.21875 -38.898438 10.25 -38.707031 10.25 -38.5 C 10.25 -38.300781 10.28125 -38.113281 10.34375 -37.9375 C 10.394531 -37.9375 10.421875 -37.9375 10.421875 -37.9375 C 10.421875 -37.9375 10.453125 -37.9375 10.515625 -37.9375 Z M 16.203125 -16.390625 C 16.085938 -16.265625 15.972656 -16.203125 15.859375 -16.203125 C 15.972656 -15.859375 16.070312 -15.507812 16.15625 -15.15625 C 16.25 -14.800781 16.351562 -14.476562 16.46875 -14.1875 C 16.757812 -13.3125 17.078125 -12.453125 17.421875 -11.609375 C 17.773438 -10.765625 18.160156 -9.929688 18.578125 -9.109375 C 18.753906 -8.703125 19.046875 -8.363281 19.453125 -8.09375 C 19.859375 -7.832031 20.238281 -7.585938 20.59375 -7.359375 C 20.757812 -7.296875 20.972656 -7.28125 21.234375 -7.3125 C 21.503906 -7.34375 21.785156 -7.390625 22.078125 -7.453125 C 21.785156 -7.796875 21.609375 -8 21.546875 -8.0625 C 20.734375 -8.46875 20.09375 -9.035156 19.625 -9.765625 C 19.15625 -10.492188 18.742188 -11.269531 18.390625 -12.09375 C 18.160156 -12.675781 17.941406 -13.226562 17.734375 -13.75 C 17.535156 -14.28125 17.289062 -14.804688 17 -15.328125 C 16.9375 -15.566406 16.816406 -15.757812 16.640625 -15.90625 C 16.472656 -16.050781 16.328125 -16.210938 16.203125 -16.390625 Z M 2.359375 -20.671875 C 2.304688 -20.671875 2.234375 -20.671875 2.140625 -20.671875 C 2.054688 -20.671875 1.984375 -20.671875 1.921875 -20.671875 C 1.867188 -20.328125 1.8125 -19.992188 1.75 -19.671875 C 1.695312 -19.347656 1.671875 -19.039062 1.671875 -18.75 C 1.671875 -17.875 1.972656 -16.984375 2.578125 -16.078125 C 3.191406 -15.171875 3.820312 -14.601562 4.46875 -14.375 C 4.695312 -14.3125 4.914062 -14.296875 5.125 -14.328125 C 5.332031 -14.359375 5.550781 -14.398438 5.78125 -14.453125 C 5.664062 -14.566406 5.546875 -14.726562 5.421875 -14.9375 C 5.304688 -15.144531 5.191406 -15.304688 5.078125 -15.421875 C 3.617188 -16.472656 2.800781 -17.90625 2.625 -19.71875 C 2.570312 -19.882812 2.53125 -20.039062 2.5 -20.1875 C 2.46875 -20.332031 2.421875 -20.492188 2.359375 -20.671875 Z M 2.890625 -37.9375 C 3.003906 -37.9375 3.085938 -37.9375 3.140625 -37.9375 C 3.203125 -37.9375 3.265625 -37.9375 3.328125 -37.9375 C 3.679688 -38.632812 3.914062 -39.378906 4.03125 -40.171875 C 4.144531 -40.960938 4.363281 -41.734375 4.6875 -42.484375 C 5.007812 -43.242188 5.578125 -43.859375 6.390625 -44.328125 C 5.867188 -44.441406 5.519531 -44.472656 5.34375 -44.421875 C 4.40625 -44.003906 3.757812 -43.398438 3.40625 -42.609375 C 3.0625 -41.828125 2.832031 -40.96875 2.71875 -40.03125 C 2.65625 -39.6875 2.648438 -39.335938 2.703125 -38.984375 C 2.765625 -38.628906 2.828125 -38.28125 2.890625 -37.9375 Z M 15.6875 -42.75 C 15.738281 -42.75 15.820312 -42.691406 15.9375 -42.578125 C 16.0625 -42.691406 16.179688 -42.804688 16.296875 -42.921875 C 16.410156 -43.046875 16.523438 -43.164062 16.640625 -43.28125 C 17.109375 -43.800781 17.59375 -44.335938 18.09375 -44.890625 C 18.59375 -45.453125 19.070312 -46.023438 19.53125 -46.609375 C 19.707031 -46.785156 19.851562 -46.988281 19.96875 -47.21875 C 19.5625 -47.332031 19.300781 -47.363281 19.1875 -47.3125 C 17.90625 -46.84375 16.941406 -45.90625 16.296875 -44.5 C 16.179688 -44.269531 16.078125 -43.992188 15.984375 -43.671875 C 15.898438 -43.347656 15.800781 -43.039062 15.6875 -42.75 Z M 15.6875 -42.75 "/></g></g></g><g fill="#000000" fill-opacity="1"><g transform="translate(251.335033, 100.306147)"><g><path d="M 9.203125 -11.03125 C 8.328125 -10.976562 7.460938 -10.921875 6.609375 -10.859375 C 5.765625 -10.804688 4.90625 -10.804688 4.03125 -10.859375 C 3.039062 -10.859375 2.148438 -11.164062 1.359375 -11.78125 C 0.566406 -12.394531 0.144531 -13.285156 0.09375 -14.453125 C -0.03125 -16.085938 0.753906 -17.253906 2.453125 -17.953125 C 3.972656 -18.597656 5.550781 -19.039062 7.1875 -19.28125 C 8.53125 -19.570312 9.875 -19.816406 11.21875 -20.015625 C 12.5625 -20.222656 13.90625 -20.382812 15.25 -20.5 C 16.414062 -20.613281 17.535156 -20.640625 18.609375 -20.578125 C 19.691406 -20.523438 20.789062 -20.441406 21.90625 -20.328125 C 22.894531 -20.210938 23.722656 -19.671875 24.390625 -18.703125 C 25.066406 -17.742188 25.375 -16.765625 25.3125 -15.765625 C 25.257812 -14.660156 24.804688 -13.695312 23.953125 -12.875 C 23.109375 -12.0625 22.160156 -11.597656 21.109375 -11.484375 C 19.128906 -11.421875 17.144531 -11.328125 15.15625 -11.203125 C 13.164062 -11.085938 11.179688 -10.972656 9.203125 -10.859375 C 9.203125 -10.921875 9.203125 -10.953125 9.203125 -10.953125 C 9.203125 -10.953125 9.203125 -10.976562 9.203125 -11.03125 Z M 23.5625 -16.640625 C 23.507812 -16.765625 23.484375 -16.898438 23.484375 -17.046875 C 23.484375 -17.191406 23.421875 -17.347656 23.296875 -17.515625 C 23.242188 -17.640625 23.15625 -17.757812 23.03125 -17.875 C 22.914062 -17.988281 22.800781 -18.101562 22.6875 -18.21875 C 22.632812 -18.101562 22.578125 -17.972656 22.515625 -17.828125 C 22.453125 -17.679688 22.421875 -17.550781 22.421875 -17.4375 C 22.421875 -16.789062 22.316406 -16.175781 22.109375 -15.59375 C 21.910156 -15.007812 21.550781 -14.484375 21.03125 -14.015625 C 20.96875 -13.960938 20.90625 -13.859375 20.84375 -13.703125 C 20.789062 -13.554688 20.734375 -13.425781 20.671875 -13.3125 C 21.023438 -13.195312 21.289062 -13.140625 21.46875 -13.140625 C 22.863281 -13.609375 23.5625 -14.773438 23.5625 -16.640625 Z M 5.25 -12.171875 C 5.082031 -12.296875 4.96875 -12.398438 4.90625 -12.484375 C 4.84375 -12.566406 4.753906 -12.640625 4.640625 -12.703125 C 3.535156 -13.523438 2.894531 -14.546875 2.71875 -15.765625 C 2.601562 -16.003906 2.484375 -16.210938 2.359375 -16.390625 C 2.304688 -16.328125 2.234375 -16.234375 2.140625 -16.109375 C 2.054688 -15.992188 1.984375 -15.878906 1.921875 -15.765625 C 1.753906 -15.128906 1.769531 -14.53125 1.96875 -13.96875 C 2.175781 -13.414062 2.484375 -12.90625 2.890625 -12.4375 C 3.179688 -12.207031 3.53125 -12.09375 3.9375 -12.09375 C 4.351562 -12.09375 4.789062 -12.117188 5.25 -12.171875 Z M 18.65625 -47.484375 C 19.300781 -47.484375 19.929688 -47.425781 20.546875 -47.3125 C 21.160156 -47.195312 21.757812 -46.929688 22.34375 -46.515625 C 23.738281 -45.585938 24.378906 -44.363281 24.265625 -42.84375 C 24.148438 -41.09375 23.242188 -39.925781 21.546875 -39.34375 C 20.785156 -39.101562 20.039062 -38.925781 19.3125 -38.8125 C 18.582031 -38.695312 17.8125 -38.578125 17 -38.453125 C 16.0625 -38.285156 15.140625 -38.128906 14.234375 -37.984375 C 13.328125 -37.835938 12.410156 -37.734375 11.484375 -37.671875 C 10.484375 -37.609375 9.472656 -37.503906 8.453125 -37.359375 C 7.429688 -37.210938 6.425781 -37.082031 5.4375 -36.96875 C 4.207031 -36.789062 3.179688 -37.050781 2.359375 -37.75 C 1.546875 -38.457031 1.050781 -39.425781 0.875 -40.65625 C 0.8125 -41.238281 0.941406 -41.921875 1.265625 -42.703125 C 1.585938 -43.492188 2.097656 -44.066406 2.796875 -44.421875 C 3.734375 -44.941406 4.695312 -45.347656 5.6875 -45.640625 C 6.6875 -45.929688 7.710938 -46.132812 8.765625 -46.25 C 9.929688 -46.425781 11.097656 -46.601562 12.265625 -46.78125 C 13.429688 -46.957031 14.570312 -47.101562 15.6875 -47.21875 C 16.15625 -47.332031 16.648438 -47.390625 17.171875 -47.390625 C 17.691406 -47.390625 18.1875 -47.421875 18.65625 -47.484375 Z M 5.25 -38.375 C 4.84375 -39.019531 4.421875 -39.660156 3.984375 -40.296875 C 3.546875 -40.941406 3.125 -41.554688 2.71875 -42.140625 C 2.1875 -41.617188 2.210938 -40.859375 2.796875 -39.859375 C 3.328125 -38.691406 4.144531 -38.195312 5.25 -38.375 Z M 19.890625 -40.46875 C 20.003906 -40.414062 20.148438 -40.390625 20.328125 -40.390625 C 21.023438 -40.503906 21.632812 -41 22.15625 -41.875 C 22.6875 -42.75 22.804688 -43.507812 22.515625 -44.15625 C 22.453125 -44.21875 22.390625 -44.289062 22.328125 -44.375 C 22.273438 -44.457031 22.191406 -44.472656 22.078125 -44.421875 C 21.847656 -44.421875 21.734375 -44.300781 21.734375 -44.0625 C 21.554688 -42.71875 20.96875 -41.609375 19.96875 -40.734375 C 19.914062 -40.734375 19.898438 -40.703125 19.921875 -40.640625 C 19.953125 -40.585938 19.941406 -40.53125 19.890625 -40.46875 Z M 0.875 -26.546875 C 0.875 -28.410156 1.601562 -29.632812 3.0625 -30.21875 C 5.164062 -31.039062 7.359375 -31.484375 9.640625 -31.546875 C 11.972656 -31.710938 14.191406 -31.972656 16.296875 -32.328125 C 17.460938 -32.554688 18.613281 -32.21875 19.75 -31.3125 C 20.894531 -30.414062 21.4375 -29.378906 21.375 -28.203125 C 21.257812 -26.109375 20.0625 -24.851562 17.78125 -24.4375 C 16.96875 -24.269531 16.125 -24.15625 15.25 -24.09375 C 14.375 -24.03125 13.523438 -23.941406 12.703125 -23.828125 C 11.890625 -23.765625 11.085938 -23.691406 10.296875 -23.609375 C 9.503906 -23.523438 8.703125 -23.453125 7.890625 -23.390625 C 6.835938 -23.390625 5.726562 -23.476562 4.5625 -23.65625 C 4.207031 -23.707031 3.835938 -23.773438 3.453125 -23.859375 C 3.078125 -23.953125 2.710938 -24.085938 2.359375 -24.265625 C 1.835938 -24.554688 1.457031 -24.921875 1.21875 -25.359375 C 0.988281 -25.796875 0.875 -26.191406 0.875 -26.546875 Z M 19.015625 -30.484375 C 19.066406 -28.734375 18.507812 -27.15625 17.34375 -25.75 C 18.457031 -25.632812 19.21875 -26.160156 19.625 -27.328125 C 19.851562 -27.910156 19.925781 -28.492188 19.84375 -29.078125 C 19.757812 -29.671875 19.484375 -30.140625 19.015625 -30.484375 Z M 3.328125 -28.90625 C 2.453125 -28.144531 2.273438 -27.210938 2.796875 -26.109375 C 3.265625 -25.054688 4.054688 -24.617188 5.171875 -24.796875 C 4.585938 -25.378906 4.117188 -25.988281 3.765625 -26.625 C 3.410156 -27.269531 3.265625 -28.03125 3.328125 -28.90625 Z M 3.328125 -28.90625 "/></g></g></g><g fill="#000000" fill-opacity="1"><g transform="translate(274.376602, 100.306147)"><g><path d="M 15.0625 -54.9375 C 15.769531 -54.988281 16.472656 -55.039062 17.171875 -55.09375 C 17.867188 -55.15625 18.539062 -55.21875 19.1875 -55.28125 C 20.707031 -55.394531 21.859375 -54.910156 22.640625 -53.828125 C 23.429688 -52.753906 23.679688 -51.691406 23.390625 -50.640625 C 23.160156 -49.648438 22.578125 -48.859375 21.640625 -48.265625 C 20.703125 -47.679688 19.769531 -47.507812 18.84375 -47.75 C 18.3125 -47.863281 17.769531 -47.90625 17.21875 -47.875 C 16.664062 -47.84375 16.066406 -47.828125 15.421875 -47.828125 C 15.472656 -47.421875 15.53125 -47.039062 15.59375 -46.6875 C 15.65625 -46.34375 15.6875 -46.023438 15.6875 -45.734375 C 15.6875 -45.265625 15.6875 -44.765625 15.6875 -44.234375 C 15.6875 -43.710938 15.6875 -43.21875 15.6875 -42.75 C 15.738281 -41.0625 15.765625 -39.335938 15.765625 -37.578125 C 15.765625 -35.828125 15.796875 -34.109375 15.859375 -32.421875 C 15.910156 -30.660156 15.992188 -28.90625 16.109375 -27.15625 C 16.234375 -25.40625 16.328125 -23.65625 16.390625 -21.90625 C 16.441406 -19.6875 16.484375 -17.4375 16.515625 -15.15625 C 16.546875 -12.875 16.53125 -10.625 16.46875 -8.40625 C 16.46875 -7.59375 16.4375 -6.757812 16.375 -5.90625 C 16.320312 -5.0625 16.0625 -4.234375 15.59375 -3.421875 C 14.832031 -2.078125 13.75 -1.15625 12.34375 -0.65625 C 10.945312 -0.15625 9.578125 -0.34375 8.234375 -1.21875 C 6.535156 -2.269531 5.6875 -3.789062 5.6875 -5.78125 C 5.632812 -8.175781 5.609375 -10.539062 5.609375 -12.875 C 5.609375 -15.21875 5.632812 -17.554688 5.6875 -19.890625 C 5.6875 -21.054688 5.6875 -22.238281 5.6875 -23.4375 C 5.6875 -24.632812 5.71875 -25.816406 5.78125 -26.984375 C 5.894531 -28.679688 5.992188 -30.375 6.078125 -32.0625 C 6.171875 -33.757812 6.25 -35.425781 6.3125 -37.0625 C 6.363281 -38.113281 6.445312 -39.148438 6.5625 -40.171875 C 6.6875 -41.191406 6.773438 -42.226562 6.828125 -43.28125 C 6.890625 -43.925781 6.9375 -44.539062 6.96875 -45.125 C 7 -45.707031 7.039062 -46.289062 7.09375 -46.875 C 7.15625 -46.988281 7.171875 -47.132812 7.140625 -47.3125 C 7.109375 -47.488281 7.09375 -47.660156 7.09375 -47.828125 C 6.507812 -47.828125 5.953125 -47.84375 5.421875 -47.875 C 4.898438 -47.90625 4.378906 -47.953125 3.859375 -48.015625 C 1.929688 -48.128906 0.703125 -49.003906 0.171875 -50.640625 C -0.0546875 -51.628906 0.144531 -52.5625 0.78125 -53.4375 C 1.425781 -54.3125 2.242188 -54.78125 3.234375 -54.84375 C 3.878906 -54.90625 4.519531 -54.945312 5.15625 -54.96875 C 5.800781 -55 6.421875 -55.046875 7.015625 -55.109375 C 7.304688 -55.109375 7.507812 -55.367188 7.625 -55.890625 C 7.738281 -56.304688 7.796875 -56.71875 7.796875 -57.125 C 7.796875 -57.53125 7.828125 -57.9375 7.890625 -58.34375 C 8.054688 -59.164062 8.460938 -59.835938 9.109375 -60.359375 C 9.753906 -60.890625 10.601562 -61.09375 11.65625 -60.96875 C 12.414062 -60.914062 13.085938 -60.582031 13.671875 -59.96875 C 14.253906 -59.351562 14.570312 -58.609375 14.625 -57.734375 C 14.75 -57.328125 14.835938 -56.90625 14.890625 -56.46875 C 14.953125 -56.03125 15.007812 -55.519531 15.0625 -54.9375 Z M 7.265625 -10.59375 C 7.265625 -10.539062 7.25 -10.515625 7.21875 -10.515625 C 7.195312 -10.515625 7.1875 -10.515625 7.1875 -10.515625 C 7.300781 -9.753906 7.398438 -9.007812 7.484375 -8.28125 C 7.578125 -7.550781 7.738281 -6.804688 7.96875 -6.046875 C 8.257812 -4.585938 9.078125 -3.59375 10.421875 -3.0625 C 10.953125 -2.882812 11.421875 -2.828125 11.828125 -2.890625 C 12.054688 -2.890625 12.1875 -2.960938 12.21875 -3.109375 C 12.25 -3.253906 12.175781 -3.414062 12 -3.59375 C 11.945312 -3.644531 11.875 -3.6875 11.78125 -3.71875 C 11.695312 -3.75 11.597656 -3.796875 11.484375 -3.859375 C 10.191406 -4.378906 9.375 -5.3125 9.03125 -6.65625 C 8.90625 -7.125 8.8125 -7.578125 8.75 -8.015625 C 8.695312 -8.453125 8.613281 -8.90625 8.5 -9.375 C 8.4375 -9.78125 8.375 -10.1875 8.3125 -10.59375 C 8.257812 -11.007812 8.175781 -11.421875 8.0625 -11.828125 C 8.0625 -11.941406 7.914062 -12.054688 7.625 -12.171875 C 7.5625 -12.117188 7.472656 -11.972656 7.359375 -11.734375 C 7.359375 -11.566406 7.359375 -11.378906 7.359375 -11.171875 C 7.359375 -10.960938 7.328125 -10.769531 7.265625 -10.59375 Z M 21.28125 -53 C 21.226562 -52.1875 20.992188 -51.515625 20.578125 -50.984375 C 20.171875 -50.460938 19.648438 -50 19.015625 -49.59375 C 18.953125 -49.59375 18.921875 -49.53125 18.921875 -49.40625 C 18.921875 -49.289062 18.953125 -49.207031 19.015625 -49.15625 C 19.128906 -49.03125 19.273438 -48.96875 19.453125 -48.96875 C 20.148438 -48.96875 20.789062 -49.390625 21.375 -50.234375 C 21.957031 -51.085938 22.101562 -51.835938 21.8125 -52.484375 C 21.757812 -52.597656 21.6875 -52.679688 21.59375 -52.734375 C 21.507812 -52.796875 21.40625 -52.882812 21.28125 -53 Z M 2.453125 -52.734375 C 1.753906 -52.148438 1.722656 -51.332031 2.359375 -50.28125 C 2.773438 -49.582031 3.332031 -49.265625 4.03125 -49.328125 C 3.789062 -49.960938 3.539062 -50.539062 3.28125 -51.0625 C 3.019531 -51.59375 2.742188 -52.148438 2.453125 -52.734375 Z M 9.546875 -56.859375 C 9.898438 -57.328125 10.25 -57.78125 10.59375 -58.21875 C 10.945312 -58.65625 11.269531 -59.078125 11.5625 -59.484375 C 11.675781 -59.597656 11.675781 -59.71875 11.5625 -59.84375 C 11.445312 -59.957031 11.300781 -60.015625 11.125 -60.015625 C 10.601562 -59.953125 10.148438 -59.523438 9.765625 -58.734375 C 9.390625 -57.953125 9.316406 -57.328125 9.546875 -56.859375 Z M 9.546875 -56.859375 "/></g></g></g><g fill="#000000" fill-opacity="1"><g transform="translate(4.769533, 91.502046)"><g><path d="M 14.90625 -23.484375 C 15.144531 -23.367188 15.382812 -23.257812 15.625 -23.15625 C 15.875 -23.050781 16.125 -22.914062 16.375 -22.75 C 17.1875 -22.300781 17.929688 -21.75 18.609375 -21.09375 C 19.285156 -20.4375 19.75 -19.617188 20 -18.640625 C 20.28125 -17.492188 20.347656 -16.390625 20.203125 -15.328125 C 20.066406 -14.265625 19.671875 -13.222656 19.015625 -12.203125 C 17.867188 -10.484375 16.351562 -9.113281 14.46875 -8.09375 C 13.613281 -7.6875 12.722656 -7.378906 11.796875 -7.171875 C 10.878906 -6.972656 9.953125 -6.832031 9.015625 -6.75 C 8.398438 -6.707031 7.785156 -6.675781 7.171875 -6.65625 C 6.554688 -6.632812 5.941406 -6.625 5.328125 -6.625 C 4.234375 -6.664062 3.242188 -6.992188 2.359375 -7.609375 C 1.484375 -8.222656 0.898438 -9.019531 0.609375 -10 C 0.410156 -10.726562 0.3125 -11.398438 0.3125 -12.015625 C 0.269531 -13.160156 0.25 -14.296875 0.25 -15.421875 C 0.25 -16.546875 0.25 -17.679688 0.25 -18.828125 C 0.25 -19.316406 0.273438 -19.796875 0.328125 -20.265625 C 0.390625 -20.734375 0.40625 -21.210938 0.375 -21.703125 C 0.332031 -22.972656 0.28125 -24.222656 0.21875 -25.453125 C 0.15625 -26.679688 0.101562 -27.925781 0.0625 -29.1875 C 0.0195312 -29.757812 0.140625 -30.28125 0.421875 -30.75 C 0.710938 -31.226562 1.0625 -31.648438 1.46875 -32.015625 C 2.289062 -32.585938 3.148438 -33.015625 4.046875 -33.296875 C 4.941406 -33.585938 5.882812 -33.773438 6.875 -33.859375 C 9.445312 -34.054688 11.691406 -33.359375 13.609375 -31.765625 C 14.878906 -30.785156 15.640625 -29.5 15.890625 -27.90625 C 16.003906 -27.082031 15.976562 -26.363281 15.8125 -25.75 C 15.65625 -25.144531 15.351562 -24.390625 14.90625 -23.484375 Z M 6.8125 -13.1875 C 7.007812 -13.226562 7.171875 -13.257812 7.296875 -13.28125 C 7.421875 -13.300781 7.546875 -13.3125 7.671875 -13.3125 C 8.691406 -13.394531 9.640625 -13.640625 10.515625 -14.046875 C 11.398438 -14.453125 12.226562 -14.984375 13 -15.640625 C 14.019531 -16.453125 13.9375 -17.101562 12.75 -17.59375 C 12.175781 -17.84375 11.59375 -18.019531 11 -18.125 C 10.414062 -18.226562 9.835938 -18.21875 9.265625 -18.09375 C 8.929688 -18.050781 8.59375 -17.988281 8.25 -17.90625 C 7.90625 -17.820312 7.546875 -17.738281 7.171875 -17.65625 C 6.722656 -17.5 6.539062 -17.15625 6.625 -16.625 C 6.664062 -16.375 6.6875 -16.125 6.6875 -15.875 C 6.6875 -15.632812 6.6875 -15.390625 6.6875 -15.140625 C 6.726562 -14.859375 6.757812 -14.550781 6.78125 -14.21875 C 6.800781 -13.894531 6.8125 -13.550781 6.8125 -13.1875 Z M 10.125 -27.296875 C 10.039062 -27.367188 9.957031 -27.4375 9.875 -27.5 C 9.789062 -27.5625 9.707031 -27.613281 9.625 -27.65625 C 9.050781 -27.988281 8.46875 -28.144531 7.875 -28.125 C 7.28125 -28.101562 6.679688 -28.007812 6.078125 -27.84375 C 6.035156 -27.84375 5.972656 -27.789062 5.890625 -27.6875 C 5.804688 -27.582031 5.765625 -27.488281 5.765625 -27.40625 C 5.804688 -26.875 5.859375 -26.332031 5.921875 -25.78125 C 5.984375 -25.226562 6.035156 -24.648438 6.078125 -24.046875 C 6.890625 -24.453125 7.644531 -24.898438 8.34375 -25.390625 C 9.039062 -25.878906 9.632812 -26.515625 10.125 -27.296875 Z M 1.90625 -12.015625 C 1.738281 -11.484375 1.804688 -10.890625 2.109375 -10.234375 C 2.421875 -9.585938 2.863281 -9.039062 3.4375 -8.59375 C 4.007812 -8.175781 4.640625 -7.894531 5.328125 -7.75 C 6.023438 -7.613281 6.578125 -7.6875 6.984375 -7.96875 C 5.765625 -8.175781 4.742188 -8.613281 3.921875 -9.28125 C 3.109375 -9.957031 2.4375 -10.867188 1.90625 -12.015625 Z M 4.234375 -31.953125 C 4.191406 -31.992188 4.171875 -32.078125 4.171875 -32.203125 C 3.878906 -32.273438 3.675781 -32.296875 3.5625 -32.265625 C 2.78125 -32.097656 2.164062 -31.539062 1.71875 -30.59375 C 1.269531 -29.65625 1.1875 -28.820312 1.46875 -28.09375 C 1.46875 -28.09375 1.550781 -28.007812 1.71875 -27.84375 C 2 -28.65625 2.257812 -29.441406 2.5 -30.203125 C 2.75 -30.960938 3.328125 -31.546875 4.234375 -31.953125 Z M 13.125 -19.015625 C 13.207031 -18.972656 13.28125 -18.929688 13.34375 -18.890625 C 13.40625 -18.847656 13.457031 -18.804688 13.5 -18.765625 C 15.007812 -18.023438 15.289062 -17.046875 14.34375 -15.828125 C 14.269531 -15.578125 14.210938 -15.367188 14.171875 -15.203125 C 14.859375 -15.285156 15.328125 -15.738281 15.578125 -16.5625 C 15.703125 -16.882812 15.734375 -17.25 15.671875 -17.65625 C 15.609375 -18.070312 15.429688 -18.359375 15.140625 -18.515625 C 14.859375 -18.765625 14.550781 -18.945312 14.21875 -19.0625 C 13.894531 -19.1875 13.53125 -19.171875 13.125 -19.015625 Z M 10.0625 -25.453125 C 10.632812 -25.578125 11.09375 -25.832031 11.4375 -26.21875 C 11.78125 -26.601562 11.929688 -27 11.890625 -27.40625 C 11.859375 -27.863281 11.644531 -28.222656 11.25 -28.484375 C 10.863281 -28.753906 10.382812 -28.910156 9.8125 -28.953125 C 10.09375 -28.660156 10.316406 -28.453125 10.484375 -28.328125 C 10.929688 -28.003906 11.15625 -27.71875 11.15625 -27.46875 C 11.15625 -27.226562 10.992188 -26.882812 10.671875 -26.4375 C 10.585938 -26.269531 10.492188 -26.113281 10.390625 -25.96875 C 10.285156 -25.832031 10.175781 -25.660156 10.0625 -25.453125 Z M 10.0625 -25.453125 "/></g></g></g><g fill="#000000" fill-opacity="1"><g transform="translate(26.907578, 91.502046)"><g><path d="M 6.4375 -7.734375 C 5.820312 -7.691406 5.21875 -7.648438 4.625 -7.609375 C 4.03125 -7.566406 3.429688 -7.566406 2.828125 -7.609375 C 2.128906 -7.609375 1.503906 -7.820312 0.953125 -8.25 C 0.398438 -8.675781 0.101562 -9.300781 0.0625 -10.125 C -0.0195312 -11.269531 0.53125 -12.085938 1.71875 -12.578125 C 2.78125 -13.023438 3.882812 -13.332031 5.03125 -13.5 C 5.96875 -13.695312 6.90625 -13.867188 7.84375 -14.015625 C 8.789062 -14.160156 9.734375 -14.269531 10.671875 -14.34375 C 11.484375 -14.425781 12.269531 -14.445312 13.03125 -14.40625 C 13.789062 -14.363281 14.554688 -14.304688 15.328125 -14.234375 C 16.023438 -14.148438 16.609375 -13.769531 17.078125 -13.09375 C 17.546875 -12.414062 17.757812 -11.734375 17.71875 -11.046875 C 17.675781 -10.265625 17.359375 -9.585938 16.765625 -9.015625 C 16.179688 -8.441406 15.519531 -8.113281 14.78125 -8.03125 C 13.382812 -7.988281 11.992188 -7.925781 10.609375 -7.84375 C 9.222656 -7.769531 7.832031 -7.691406 6.4375 -7.609375 C 6.4375 -7.648438 6.4375 -7.671875 6.4375 -7.671875 C 6.4375 -7.671875 6.4375 -7.691406 6.4375 -7.734375 Z M 16.5 -11.65625 C 16.457031 -11.738281 16.4375 -11.828125 16.4375 -11.921875 C 16.4375 -12.023438 16.394531 -12.140625 16.3125 -12.265625 C 16.269531 -12.347656 16.207031 -12.429688 16.125 -12.515625 C 16.039062 -12.597656 15.960938 -12.675781 15.890625 -12.75 C 15.847656 -12.675781 15.804688 -12.585938 15.765625 -12.484375 C 15.722656 -12.378906 15.703125 -12.285156 15.703125 -12.203125 C 15.703125 -11.753906 15.628906 -11.320312 15.484375 -10.90625 C 15.335938 -10.5 15.082031 -10.132812 14.71875 -9.8125 C 14.675781 -9.769531 14.632812 -9.695312 14.59375 -9.59375 C 14.550781 -9.488281 14.507812 -9.398438 14.46875 -9.328125 C 14.71875 -9.242188 14.90625 -9.203125 15.03125 -9.203125 C 16.007812 -9.523438 16.5 -10.34375 16.5 -11.65625 Z M 3.6875 -8.53125 C 3.5625 -8.601562 3.476562 -8.671875 3.4375 -8.734375 C 3.394531 -8.796875 3.332031 -8.847656 3.25 -8.890625 C 2.46875 -9.460938 2.019531 -10.179688 1.90625 -11.046875 C 1.820312 -11.203125 1.738281 -11.34375 1.65625 -11.46875 C 1.613281 -11.425781 1.5625 -11.363281 1.5 -11.28125 C 1.4375 -11.195312 1.382812 -11.117188 1.34375 -11.046875 C 1.226562 -10.585938 1.238281 -10.164062 1.375 -9.78125 C 1.519531 -9.394531 1.738281 -9.035156 2.03125 -8.703125 C 2.226562 -8.546875 2.46875 -8.46875 2.75 -8.46875 C 3.039062 -8.46875 3.351562 -8.488281 3.6875 -8.53125 Z M 13.0625 -33.234375 C 13.507812 -33.234375 13.945312 -33.191406 14.375 -33.109375 C 14.8125 -33.035156 15.234375 -32.851562 15.640625 -32.5625 C 16.617188 -31.90625 17.066406 -31.046875 16.984375 -29.984375 C 16.898438 -28.765625 16.269531 -27.945312 15.09375 -27.53125 C 14.5625 -27.375 14.035156 -27.253906 13.515625 -27.171875 C 13.003906 -27.085938 12.460938 -27.003906 11.890625 -26.921875 C 11.242188 -26.796875 10.601562 -26.679688 9.96875 -26.578125 C 9.332031 -26.484375 8.6875 -26.414062 8.03125 -26.375 C 7.332031 -26.332031 6.625 -26.257812 5.90625 -26.15625 C 5.195312 -26.050781 4.492188 -25.957031 3.796875 -25.875 C 2.941406 -25.757812 2.226562 -25.945312 1.65625 -26.4375 C 1.082031 -26.925781 0.734375 -27.597656 0.609375 -28.453125 C 0.566406 -28.859375 0.660156 -29.335938 0.890625 -29.890625 C 1.117188 -30.441406 1.476562 -30.84375 1.96875 -31.09375 C 2.613281 -31.457031 3.285156 -31.742188 3.984375 -31.953125 C 4.679688 -32.160156 5.398438 -32.300781 6.140625 -32.375 C 6.953125 -32.5 7.765625 -32.625 8.578125 -32.75 C 9.398438 -32.875 10.203125 -32.976562 10.984375 -33.0625 C 11.304688 -33.132812 11.648438 -33.171875 12.015625 -33.171875 C 12.390625 -33.171875 12.738281 -33.191406 13.0625 -33.234375 Z M 3.6875 -26.859375 C 3.394531 -27.304688 3.09375 -27.753906 2.78125 -28.203125 C 2.476562 -28.660156 2.1875 -29.09375 1.90625 -29.5 C 1.53125 -29.132812 1.550781 -28.601562 1.96875 -27.90625 C 2.332031 -27.082031 2.90625 -26.734375 3.6875 -26.859375 Z M 13.921875 -28.328125 C 14.003906 -28.285156 14.109375 -28.265625 14.234375 -28.265625 C 14.722656 -28.347656 15.148438 -28.695312 15.515625 -29.3125 C 15.878906 -29.925781 15.960938 -30.457031 15.765625 -30.90625 C 15.722656 -30.945312 15.679688 -31 15.640625 -31.0625 C 15.597656 -31.125 15.535156 -31.132812 15.453125 -31.09375 C 15.285156 -31.09375 15.203125 -31.007812 15.203125 -30.84375 C 15.085938 -29.90625 14.679688 -29.128906 13.984375 -28.515625 C 13.941406 -28.515625 13.929688 -28.492188 13.953125 -28.453125 C 13.972656 -28.410156 13.960938 -28.367188 13.921875 -28.328125 Z M 0.609375 -18.578125 C 0.609375 -19.890625 1.117188 -20.75 2.140625 -21.15625 C 3.617188 -21.726562 5.15625 -22.035156 6.75 -22.078125 C 8.382812 -22.203125 9.9375 -22.382812 11.40625 -22.625 C 12.226562 -22.789062 13.035156 -22.554688 13.828125 -21.921875 C 14.628906 -21.285156 15.007812 -20.5625 14.96875 -19.75 C 14.882812 -18.28125 14.046875 -17.398438 12.453125 -17.109375 C 11.878906 -16.984375 11.285156 -16.898438 10.671875 -16.859375 C 10.054688 -16.816406 9.460938 -16.757812 8.890625 -16.6875 C 8.316406 -16.644531 7.753906 -16.59375 7.203125 -16.53125 C 6.648438 -16.46875 6.085938 -16.414062 5.515625 -16.375 C 4.785156 -16.375 4.007812 -16.4375 3.1875 -16.5625 C 2.945312 -16.601562 2.691406 -16.648438 2.421875 -16.703125 C 2.160156 -16.765625 1.90625 -16.859375 1.65625 -16.984375 C 1.289062 -17.191406 1.023438 -17.445312 0.859375 -17.75 C 0.691406 -18.0625 0.609375 -18.335938 0.609375 -18.578125 Z M 13.3125 -21.34375 C 13.351562 -20.113281 12.960938 -19.007812 12.140625 -18.03125 C 12.921875 -17.945312 13.453125 -18.316406 13.734375 -19.140625 C 13.898438 -19.546875 13.953125 -19.953125 13.890625 -20.359375 C 13.828125 -20.765625 13.632812 -21.09375 13.3125 -21.34375 Z M 2.328125 -20.234375 C 1.710938 -19.703125 1.59375 -19.050781 1.96875 -18.28125 C 2.289062 -17.539062 2.84375 -17.234375 3.625 -17.359375 C 3.207031 -17.765625 2.875 -18.191406 2.625 -18.640625 C 2.382812 -19.085938 2.285156 -19.617188 2.328125 -20.234375 Z M 2.328125 -20.234375 "/></g></g></g><g fill="#000000" fill-opacity="1"><g transform="translate(46.531334, 91.502046)"><g><path d="M 5.09375 -6.75 C 3.738281 -6.664062 2.695312 -7.15625 1.96875 -8.21875 C 1.550781 -8.832031 1.425781 -9.523438 1.59375 -10.296875 C 1.757812 -11.078125 2.171875 -11.691406 2.828125 -12.140625 C 3.148438 -12.390625 3.492188 -12.625 3.859375 -12.84375 C 4.234375 -13.070312 4.582031 -13.304688 4.90625 -13.546875 C 5.394531 -13.878906 5.640625 -14.28125 5.640625 -14.75 C 5.640625 -15.21875 5.394531 -15.617188 4.90625 -15.953125 C 4.582031 -16.148438 4.253906 -16.335938 3.921875 -16.515625 C 3.597656 -16.703125 3.269531 -16.878906 2.9375 -17.046875 C 1.382812 -18.023438 0.445312 -19.4375 0.125 -21.28125 C -0.0820312 -22.707031 0.046875 -24.015625 0.515625 -25.203125 C 0.992188 -26.390625 1.617188 -27.515625 2.390625 -28.578125 C 3.085938 -29.472656 3.863281 -30.25 4.71875 -30.90625 C 5.582031 -31.5625 6.546875 -32.050781 7.609375 -32.375 C 8.222656 -32.582031 8.8125 -32.644531 9.375 -32.5625 C 9.945312 -32.476562 10.460938 -32.210938 10.921875 -31.765625 C 11.609375 -31.109375 11.910156 -30.351562 11.828125 -29.5 C 11.753906 -28.644531 11.304688 -27.96875 10.484375 -27.46875 C 8.929688 -26.488281 7.972656 -25.117188 7.609375 -23.359375 C 7.484375 -22.953125 7.582031 -22.609375 7.90625 -22.328125 C 8.5625 -21.796875 9.15625 -21.234375 9.6875 -20.640625 C 10.21875 -20.046875 10.671875 -19.359375 11.046875 -18.578125 C 11.734375 -17.109375 11.972656 -15.484375 11.765625 -13.703125 C 11.566406 -11.929688 10.851562 -10.410156 9.625 -9.140625 C 9.09375 -8.609375 8.5625 -8.132812 8.03125 -7.71875 C 7.5 -7.3125 6.867188 -7.03125 6.140625 -6.875 C 5.972656 -6.832031 5.804688 -6.8125 5.640625 -6.8125 C 5.472656 -6.8125 5.289062 -6.789062 5.09375 -6.75 Z M 3.734375 -19.015625 C 3.367188 -19.703125 3.019531 -20.363281 2.6875 -21 C 2.363281 -21.632812 2.222656 -22.34375 2.265625 -23.125 C 2.304688 -23.851562 2.4375 -24.566406 2.65625 -25.265625 C 2.882812 -25.960938 3.207031 -26.640625 3.625 -27.296875 C 2.96875 -27.171875 2.421875 -26.609375 1.984375 -25.609375 C 1.554688 -24.609375 1.363281 -23.632812 1.40625 -22.6875 C 1.445312 -21.832031 1.703125 -21.015625 2.171875 -20.234375 C 2.640625 -19.460938 3.160156 -19.054688 3.734375 -19.015625 Z M 3.125 -10.421875 C 3.082031 -10.421875 3.039062 -10.421875 3 -10.421875 C 2.957031 -10.421875 2.914062 -10.421875 2.875 -10.421875 C 2.875 -10.265625 2.863281 -10.113281 2.84375 -9.96875 C 2.832031 -9.820312 2.84375 -9.6875 2.875 -9.5625 C 3.082031 -8.5 3.78125 -7.90625 4.96875 -7.78125 C 5.175781 -7.78125 5.359375 -7.8125 5.515625 -7.875 C 5.679688 -7.9375 5.847656 -7.988281 6.015625 -8.03125 C 5.890625 -8.113281 5.753906 -8.207031 5.609375 -8.3125 C 5.460938 -8.414062 5.3125 -8.488281 5.15625 -8.53125 C 4.738281 -8.6875 4.347656 -8.867188 3.984375 -9.078125 C 3.617188 -9.285156 3.394531 -9.65625 3.3125 -10.1875 C 3.3125 -10.21875 3.25 -10.296875 3.125 -10.421875 Z M 10.234375 -30.671875 C 9.992188 -30.171875 9.757812 -29.707031 9.53125 -29.28125 C 9.3125 -28.851562 9.078125 -28.414062 8.828125 -27.96875 C 8.867188 -27.925781 8.898438 -27.894531 8.921875 -27.875 C 8.941406 -27.851562 8.972656 -27.820312 9.015625 -27.78125 C 9.335938 -27.90625 9.59375 -28.097656 9.78125 -28.359375 C 9.96875 -28.628906 10.117188 -28.90625 10.234375 -29.1875 C 10.359375 -29.394531 10.441406 -29.617188 10.484375 -29.859375 C 10.523438 -30.109375 10.441406 -30.378906 10.234375 -30.671875 Z M 10.234375 -30.671875 "/></g></g></g><g fill="#000000" fill-opacity="1"><g transform="translate(56.649639, 91.502046)"><g><path d="M 10.546875 -38.453125 C 11.035156 -38.492188 11.523438 -38.535156 12.015625 -38.578125 C 12.503906 -38.617188 12.976562 -38.660156 13.4375 -38.703125 C 14.5 -38.785156 15.304688 -38.445312 15.859375 -37.6875 C 16.410156 -36.925781 16.582031 -36.179688 16.375 -35.453125 C 16.207031 -34.753906 15.796875 -34.195312 15.140625 -33.78125 C 14.492188 -33.375 13.84375 -33.253906 13.1875 -33.421875 C 12.820312 -33.503906 12.441406 -33.535156 12.046875 -33.515625 C 11.660156 -33.492188 11.242188 -33.484375 10.796875 -33.484375 C 10.835938 -33.203125 10.878906 -32.9375 10.921875 -32.6875 C 10.960938 -32.4375 10.984375 -32.210938 10.984375 -32.015625 C 10.984375 -31.679688 10.984375 -31.332031 10.984375 -30.96875 C 10.984375 -30.601562 10.984375 -30.253906 10.984375 -29.921875 C 11.023438 -28.742188 11.046875 -27.539062 11.046875 -26.3125 C 11.046875 -25.082031 11.0625 -23.875 11.09375 -22.6875 C 11.132812 -21.46875 11.195312 -20.242188 11.28125 -19.015625 C 11.363281 -17.785156 11.425781 -16.554688 11.46875 -15.328125 C 11.507812 -13.773438 11.539062 -12.203125 11.5625 -10.609375 C 11.582031 -9.015625 11.570312 -7.441406 11.53125 -5.890625 C 11.53125 -5.316406 11.507812 -4.734375 11.46875 -4.140625 C 11.425781 -3.546875 11.242188 -2.960938 10.921875 -2.390625 C 10.390625 -1.453125 9.628906 -0.804688 8.640625 -0.453125 C 7.660156 -0.109375 6.703125 -0.242188 5.765625 -0.859375 C 4.578125 -1.597656 3.984375 -2.660156 3.984375 -4.046875 C 3.941406 -5.722656 3.921875 -7.378906 3.921875 -9.015625 C 3.921875 -10.648438 3.941406 -12.285156 3.984375 -13.921875 C 3.984375 -14.734375 3.984375 -15.554688 3.984375 -16.390625 C 3.984375 -17.234375 4.003906 -18.066406 4.046875 -18.890625 C 4.128906 -20.078125 4.203125 -21.257812 4.265625 -22.4375 C 4.328125 -23.625 4.378906 -24.789062 4.421875 -25.9375 C 4.460938 -26.675781 4.519531 -27.398438 4.59375 -28.109375 C 4.675781 -28.828125 4.738281 -29.554688 4.78125 -30.296875 C 4.820312 -30.742188 4.851562 -31.171875 4.875 -31.578125 C 4.894531 -31.992188 4.925781 -32.40625 4.96875 -32.8125 C 5.007812 -32.894531 5.019531 -32.992188 5 -33.109375 C 4.976562 -33.234375 4.96875 -33.359375 4.96875 -33.484375 C 4.5625 -33.484375 4.171875 -33.492188 3.796875 -33.515625 C 3.429688 -33.535156 3.066406 -33.566406 2.703125 -33.609375 C 1.347656 -33.691406 0.488281 -34.304688 0.125 -35.453125 C -0.0390625 -36.140625 0.0976562 -36.789062 0.546875 -37.40625 C 1.003906 -38.019531 1.578125 -38.347656 2.265625 -38.390625 C 2.710938 -38.429688 3.160156 -38.460938 3.609375 -38.484375 C 4.066406 -38.503906 4.5 -38.535156 4.90625 -38.578125 C 5.113281 -38.578125 5.253906 -38.757812 5.328125 -39.125 C 5.410156 -39.414062 5.453125 -39.703125 5.453125 -39.984375 C 5.453125 -40.273438 5.472656 -40.5625 5.515625 -40.84375 C 5.640625 -41.414062 5.925781 -41.882812 6.375 -42.25 C 6.820312 -42.625 7.414062 -42.769531 8.15625 -42.6875 C 8.6875 -42.644531 9.15625 -42.40625 9.5625 -41.96875 C 9.976562 -41.539062 10.203125 -41.023438 10.234375 -40.421875 C 10.316406 -40.128906 10.378906 -39.828125 10.421875 -39.515625 C 10.460938 -39.210938 10.503906 -38.859375 10.546875 -38.453125 Z M 5.09375 -7.421875 C 5.09375 -7.378906 5.082031 -7.359375 5.0625 -7.359375 C 5.039062 -7.359375 5.03125 -7.359375 5.03125 -7.359375 C 5.113281 -6.828125 5.179688 -6.304688 5.234375 -5.796875 C 5.296875 -5.285156 5.410156 -4.765625 5.578125 -4.234375 C 5.785156 -3.210938 6.359375 -2.515625 7.296875 -2.140625 C 7.660156 -2.023438 7.988281 -1.988281 8.28125 -2.03125 C 8.445312 -2.03125 8.539062 -2.078125 8.5625 -2.171875 C 8.582031 -2.273438 8.53125 -2.390625 8.40625 -2.515625 C 8.363281 -2.554688 8.3125 -2.585938 8.25 -2.609375 C 8.1875 -2.628906 8.113281 -2.660156 8.03125 -2.703125 C 7.132812 -3.066406 6.5625 -3.71875 6.3125 -4.65625 C 6.226562 -4.988281 6.164062 -5.304688 6.125 -5.609375 C 6.09375 -5.921875 6.035156 -6.238281 5.953125 -6.5625 C 5.910156 -6.84375 5.867188 -7.125 5.828125 -7.40625 C 5.785156 -7.695312 5.722656 -7.988281 5.640625 -8.28125 C 5.640625 -8.363281 5.535156 -8.445312 5.328125 -8.53125 C 5.296875 -8.488281 5.238281 -8.382812 5.15625 -8.21875 C 5.15625 -8.09375 5.15625 -7.957031 5.15625 -7.8125 C 5.15625 -7.675781 5.132812 -7.546875 5.09375 -7.421875 Z M 14.90625 -37.109375 C 14.863281 -36.535156 14.695312 -36.0625 14.40625 -35.6875 C 14.125 -35.320312 13.757812 -35 13.3125 -34.71875 C 13.269531 -34.71875 13.25 -34.675781 13.25 -34.59375 C 13.25 -34.507812 13.269531 -34.445312 13.3125 -34.40625 C 13.394531 -34.320312 13.492188 -34.28125 13.609375 -34.28125 C 14.097656 -34.28125 14.546875 -34.578125 14.953125 -35.171875 C 15.367188 -35.765625 15.472656 -36.285156 15.265625 -36.734375 C 15.222656 -36.816406 15.171875 -36.878906 15.109375 -36.921875 C 15.054688 -36.960938 14.988281 -37.023438 14.90625 -37.109375 Z M 1.71875 -36.921875 C 1.226562 -36.515625 1.207031 -35.941406 1.65625 -35.203125 C 1.9375 -34.710938 2.328125 -34.488281 2.828125 -34.53125 C 2.660156 -34.976562 2.484375 -35.382812 2.296875 -35.75 C 2.117188 -36.125 1.925781 -36.515625 1.71875 -36.921875 Z M 6.6875 -39.796875 C 6.925781 -40.128906 7.164062 -40.445312 7.40625 -40.75 C 7.65625 -41.0625 7.882812 -41.359375 8.09375 -41.640625 C 8.175781 -41.722656 8.175781 -41.804688 8.09375 -41.890625 C 8.007812 -41.972656 7.90625 -42.015625 7.78125 -42.015625 C 7.414062 -41.972656 7.097656 -41.675781 6.828125 -41.125 C 6.566406 -40.570312 6.519531 -40.128906 6.6875 -39.796875 Z M 6.6875 -39.796875 "/></g></g></g><g fill="#ff3131" fill-opacity="1"><g transform="translate(74.988279, 91.502046)"><g/></g></g><g fill="#d17b88" fill-opacity="1"><g transform="translate(90.328122, 91.502046)"><g><path d="M 9.75 -13.984375 C 8.601562 -14.023438 7.476562 -14.078125 6.375 -14.140625 C 5.269531 -14.203125 4.144531 -14.253906 3 -14.296875 C 2.757812 -14.296875 2.523438 -14.300781 2.296875 -14.3125 C 2.078125 -14.332031 1.84375 -14.363281 1.59375 -14.40625 C 0.53125 -14.613281 0 -15.207031 0 -16.1875 C 0 -17.164062 0.53125 -17.757812 1.59375 -17.96875 C 2 -18.050781 2.394531 -18.101562 2.78125 -18.125 C 3.175781 -18.144531 3.578125 -18.175781 3.984375 -18.21875 C 4.878906 -18.257812 5.765625 -18.300781 6.640625 -18.34375 C 7.523438 -18.382812 8.398438 -18.40625 9.265625 -18.40625 C 9.878906 -18.40625 10.488281 -18.394531 11.09375 -18.375 C 11.707031 -18.351562 12.320312 -18.320312 12.9375 -18.28125 C 13.507812 -18.238281 13.96875 -18.007812 14.3125 -17.59375 C 14.664062 -17.1875 14.820312 -16.695312 14.78125 -16.125 C 14.78125 -15.59375 14.601562 -15.132812 14.25 -14.75 C 13.90625 -14.363281 13.445312 -14.148438 12.875 -14.109375 C 12.34375 -14.066406 11.820312 -14.046875 11.3125 -14.046875 C 10.800781 -14.046875 10.28125 -14.046875 9.75 -14.046875 C 9.75 -14.046875 9.75 -14.035156 9.75 -14.015625 C 9.75 -13.992188 9.75 -13.984375 9.75 -13.984375 Z M 12.328125 -14.96875 C 13.109375 -14.800781 13.660156 -15.046875 13.984375 -15.703125 C 14.148438 -15.941406 14.242188 -16.179688 14.265625 -16.421875 C 14.285156 -16.671875 14.128906 -16.921875 13.796875 -17.171875 C 13.554688 -16.804688 13.320312 -16.4375 13.09375 -16.0625 C 12.863281 -15.695312 12.609375 -15.332031 12.328125 -14.96875 Z M 1.171875 -16.75 C 0.671875 -16.175781 0.671875 -15.640625 1.171875 -15.140625 C 1.285156 -15.023438 1.4375 -14.925781 1.625 -14.84375 C 1.8125 -14.757812 1.984375 -14.84375 2.140625 -15.09375 C 1.984375 -15.375 1.832031 -15.644531 1.6875 -15.90625 C 1.539062 -16.175781 1.367188 -16.457031 1.171875 -16.75 Z M 1.171875 -16.75 "/></g></g></g></svg>